ffmpeg started on 2025-05-28 at 22:09:32
Report written to "D:\Convert\FFMetrics\reports\psnr_report-6.txt"
Log level: 32
Command line:
ffmpeg -hide_banner -nostdin -i "G:\\\xc0\xed\xe8\xec\xe5\\\xce\xed\xe3\xee\xe8\xed\xe3\xe8\\!_36_\xce\xf1\xe5\xed\xfc_2024\\JamClub\\\xcc\xe5\xf5\xe0\xed\xe8\xf7\xe5\xf1\xea\xe8\xe5 \xf0\xf3\xea\xe8\\JamClub_Mecha_ude_TV_09_1080p_HEVC.mkv" -i "G:\\\xc0\xed\xe8\xec\xe5\\\xce\xed\xe3\xee\xe8\xed\xe3\xe8\\!_36_\xce\xf1\xe5\xed\xfc_2024\\JamClub\\\xcc\xe5\xf5\xe0\xed\xe8\xf7\xe5\xf1\xea\xe8\xe5 \xf0\xf3\xea\xe8\\JamClub_Mecha_ude_TV_09_1080p.mp4" -lavfi "[0:v]settb=AVTB,setpts=PTS-STARTPTS,format=pix_fmts=yuv420p10,fps=24000/1001,scale=1920:1080:flags=bicubic[main];[1:v]settb=AVTB,setpts=PTS-STARTPTS,format=pix_fmts=yuv420p,fps=24000/1001,scale=1920:1080:flags=bicubic[ref];[main][ref]psnr=eof_action=endall:stats_file='D\\:/Convert/FFMetrics/logs/psnr_logfile-6.txt'" -f null -
Input #0, matroska,webm, from 'G:\Аниме\Онгоинги\!_36_Осень_2024\JamClub\Механические руки\JamClub_Mecha_ude_TV_09_1080p_HEVC.mkv':
  Metadata:
    COMPATIBLE_BRANDS: isomiso2avc1mp41
    MAJOR_BRAND     : isom
    MINOR_VERSION   : 512
    ENCODER         : Lavf61.7.100
  Duration: 00:24:04.27, start: -0.001000, bitrate: 1644 kb/s
  Stream #0:0: Video: hevc (Main 10), yuv420p10le(tv, bt709, progressive), 1920x1080 [SAR 1:1 DAR 16:9], 23.98 fps, 23.98 tbr, 1k tbn (default)
      Metadata:
        HANDLER_NAME    : VideoHandler
        VENDOR_ID       : [0][0][0][0]
        ENCODER         : Lavc61.19.100 libx265
        BPS             : 1446562
        DURATION        : 00:24:04.150708333
        NUMBER_OF_FRAMES: 34625
        NUMBER_OF_BYTES : 261131742
        _STATISTICS_WRITING_APP: mkvpropedit v66.0.0 ('Josie') 64-bit
        _STATISTICS_WRITING_DATE_UTC: 2025-05-28 16:10:13
        _STATISTICS_TAGS: BPS DURATION NUMBER_OF_FRAMES NUMBER_OF_BYTES
  Stream #0:1(eng): Audio: aac (LC), 48000 Hz, stereo, fltp (default)
      Metadata:
        HANDLER_NAME    : SoundHandler
        VENDOR_ID       : [0][0][0][0]
        ENCODER         : Lavc61.19.100 aac
        BPS             : 194101
        DURATION        : 00:24:04.227000000
        NUMBER_OF_FRAMES: 67699
        NUMBER_OF_BYTES : 35040891
        _STATISTICS_WRITING_APP: mkvpropedit v66.0.0 ('Josie') 64-bit
        _STATISTICS_WRITING_DATE_UTC: 2025-05-28 16:10:13
        _STATISTICS_TAGS: BPS DURATION NUMBER_OF_FRAMES NUMBER_OF_BYTES
Input #1, mov,mp4,m4a,3gp,3g2,mj2, from 'G:\Аниме\Онгоинги\!_36_Осень_2024\JamClub\Механические руки\JamClub_Mecha_ude_TV_09_1080p.mp4':
  Metadata:
    major_brand     : isom
    minor_version   : 512
    compatible_brands: isomiso2avc1mp41
    encoder         : Lavf60.16.100
  Duration: 00:24:04.25, start: 0.000000, bitrate: 4040 kb/s
  Stream #1:0[0x1](und): Video: h264 (High) (avc1 / 0x31637661), yuv420p(progressive), 1920x1080 [SAR 1:1 DAR 16:9], 3842 kb/s, 23.98 fps, 23.98 tbr, 90k tbn (default)
      Metadata:
        handler_name    : VideoHandler
        vendor_id       : [0][0][0][0]
  Stream #1:1[0x2](eng): Audio: aac (LC) (mp4a / 0x6134706D), 48000 Hz, stereo, fltp, 191 kb/s (default)
      Metadata:
        handler_name    : SoundHandler
        vendor_id       : [0][0][0][0]
Stream mapping:
  Stream #0:0 (hevc) -> settb:default
  Stream #1:0 (h264) -> settb:default
  psnr:default -> Stream #0:0 (wrapped_avframe)
  Stream #0:1 -> #0:1 (aac (native) -> pcm_s16le (native))
Output #0, null, to 'pipe:':
  Metadata:
    COMPATIBLE_BRANDS: isomiso2avc1mp41
    MAJOR_BRAND     : isom
    MINOR_VERSION   : 512
    encoder         : Lavf61.7.100
  Stream #0:0: Video: wrapped_avframe, yuv420p10le(tv, bt709, progressive), 1920x1080 [SAR 1:1 DAR 16:9], q=2-31, 200 kb/s, 23.98 fps, 23.98 tbn
      Metadata:
        encoder         : Lavc61.19.100 wrapped_avframe
  Stream #0:1(eng): Audio: pcm_s16le, 48000 Hz, stereo, s16, 1536 kb/s (default)
      Metadata:
        HANDLER_NAME    : SoundHandler
        VENDOR_ID       : [0][0][0][0]
        _STATISTICS_TAGS: BPS DURATION NUMBER_OF_FRAMES NUMBER_OF_BYTES
        BPS             : 194101
        DURATION        : 00:24:04.227000000
        NUMBER_OF_FRAMES: 67699
        NUMBER_OF_BYTES : 35040891
        _STATISTICS_WRITING_APP: mkvpropedit v66.0.0 ('Josie') 64-bit
        _STATISTICS_WRITING_DATE_UTC: 2025-05-28 16:10:13
        encoder         : Lavc61.19.100 pcm_s16le
frame=  113 fps=0.0 q=-0.0 size=N/A time=00:00:04.71 bitrate=N/A speed=8.96x    frame=  271 fps=263 q=-0.0 size=N/A time=00:00:11.30 bitrate=N/A speed=  11x    frame=  477 fps=307 q=-0.0 size=N/A time=00:00:19.89 bitrate=N/A speed=12.8x    frame=  699 fps=339 q=-0.0 size=N/A time=00:00:29.15 bitrate=N/A speed=14.1x    frame=  889 fps=344 q=-0.0 size=N/A time=00:00:37.07 bitrate=N/A speed=14.3x    frame= 1060 fps=341 q=-0.0 size=N/A time=00:00:44.21 bitrate=N/A speed=14.2x    frame= 1294 fps=358 q=-0.0 size=N/A time=00:00:53.97 bitrate=N/A speed=14.9x    frame= 1440 fps=348 q=-0.0 size=N/A time=00:01:00.06 bitrate=N/A speed=14.5x    frame= 1595 fps=344 q=-0.0 size=N/A time=00:01:06.52 bitrate=N/A speed=14.3x    frame= 1757 fps=340 q=-0.0 size=N/A time=00:01:13.28 bitrate=N/A speed=14.2x    frame= 1953 fps=344 q=-0.0 size=N/A time=00:01:21.45 bitrate=N/A speed=14.4x    frame= 2131 fps=344 q=-0.0 size=N/A time=00:01:28.88 bitrate=N/A speed=14.3x    frame= 2376 fps=354 q=-0.0 size=N/A time=00:01:39.09 bitrate=N/A speed=14.8x    frame= 2629 fps=364 q=-0.0 size=N/A time=00:01:49.65 bitrate=N/A speed=15.2x    frame= 2857 fps=369 q=-0.0 size=N/A time=00:01:59.16 bitrate=N/A speed=15.4x    frame= 3032 fps=367 q=-0.0 size=N/A time=00:02:06.45 bitrate=N/A speed=15.3x    frame= 3196 fps=365 q=-0.0 size=N/A time=00:02:13.29 bitrate=N/A speed=15.2x    frame= 3389 fps=365 q=-0.0 size=N/A time=00:02:21.34 bitrate=N/A speed=15.2x    frame= 3601 fps=367 q=-0.0 size=N/A time=00:02:30.19 bitrate=N/A speed=15.3x    frame= 3846 fps=372 q=-0.0 size=N/A time=00:02:40.41 bitrate=N/A speed=15.5x    frame= 4084 fps=376 q=-0.0 size=N/A time=00:02:50.33 bitrate=N/A speed=15.7x    frame= 4311 fps=379 q=-0.0 size=N/A time=00:02:59.80 bitrate=N/A speed=15.8x    frame= 4573 fps=385 q=-0.0 size=N/A time=00:03:10.73 bitrate=N/A speed=  16x    frame= 4710 fps=380 q=-0.0 size=N/A time=00:03:16.44 bitrate=N/A speed=15.9x    frame= 4860 fps=376 q=-0.0 size=N/A time=00:03:22.70 bitrate=N/A speed=15.7x    frame= 5058 fps=376 q=-0.0 size=N/A time=00:03:30.96 bitrate=N/A speed=15.7x    frame= 5265 fps=378 q=-0.0 size=N/A time=00:03:39.59 bitrate=N/A speed=15.7x    frame= 5527 fps=382 q=-0.0 size=N/A time=00:03:50.52 bitrate=N/A speed=15.9x    frame= 5751 fps=384 q=-0.0 size=N/A time=00:03:59.86 bitrate=N/A speed=  16x    frame= 6032 fps=389 q=-0.0 size=N/A time=00:04:11.58 bitrate=N/A speed=16.2x    frame= 6290 fps=393 q=-0.0 size=N/A time=00:04:22.34 bitrate=N/A speed=16.4x    frame= 6520 fps=395 q=-0.0 size=N/A time=00:04:31.93 bitrate=N/A speed=16.5x    frame= 6717 fps=394 q=-0.0 size=N/A time=00:04:40.15 bitrate=N/A speed=16.4x    frame= 6911 fps=394 q=-0.0 size=N/A time=00:04:48.24 bitrate=N/A speed=16.4x    frame= 7106 fps=393 q=-0.0 size=N/A time=00:04:56.37 bitrate=N/A speed=16.4x    frame= 7287 fps=392 q=-0.0 size=N/A time=00:05:03.92 bitrate=N/A speed=16.3x    frame= 7495 fps=393 q=-0.0 size=N/A time=00:05:12.60 bitrate=N/A speed=16.4x    frame= 7699 fps=392 q=-0.0 size=N/A time=00:05:21.11 bitrate=N/A speed=16.4x    frame= 7902 fps=393 q=-0.0 size=N/A time=00:05:29.57 bitrate=N/A speed=16.4x    frame= 8103 fps=393 q=-0.0 size=N/A time=00:05:37.96 bitrate=N/A speed=16.4x    frame= 8304 fps=392 q=-0.0 size=N/A time=00:05:46.34 bitrate=N/A speed=16.4x    frame= 8542 fps=394 q=-0.0 size=N/A time=00:05:56.27 bitrate=N/A speed=16.4x    frame= 8799 fps=397 q=-0.0 size=N/A time=00:06:06.99 bitrate=N/A speed=16.5x    frame= 9027 fps=397 q=-0.0 size=N/A time=00:06:16.50 bitrate=N/A speed=16.6x    frame= 9244 fps=398 q=-0.0 size=N/A time=00:06:25.55 bitrate=N/A speed=16.6x    frame= 9395 fps=396 q=-0.0 size=N/A time=00:06:31.84 bitrate=N/A speed=16.5x    frame= 9589 fps=395 q=-0.0 size=N/A time=00:06:39.94 bitrate=N/A speed=16.5x    frame= 9771 fps=394 q=-0.0 size=N/A time=00:06:47.53 bitrate=N/A speed=16.5x    frame=10033 fps=397 q=-0.0 size=N/A time=00:06:58.45 bitrate=N/A speed=16.5x    frame=10295 fps=399 q=-0.0 size=N/A time=00:07:09.38 bitrate=N/A speed=16.6x    frame=10571 fps=402 q=-0.0 size=N/A time=00:07:20.89 bitrate=N/A speed=16.7x    frame=10820 fps=403 q=-0.0 size=N/A time=00:07:31.28 bitrate=N/A speed=16.8x    frame=11027 fps=403 q=-0.0 size=N/A time=00:07:39.91 bitrate=N/A speed=16.8x    frame=11279 fps=405 q=-0.0 size=N/A time=00:07:50.42 bitrate=N/A speed=16.9x    frame=11543 fps=407 q=-0.0 size=N/A time=00:08:01.43 bitrate=N/A speed=  17x    frame=11807 fps=409 q=-0.0 size=N/A time=00:08:12.45 bitrate=N/A speed=  17x    frame=12019 fps=409 q=-0.0 size=N/A time=00:08:21.29 bitrate=N/A speed=  17x    frame=12227 fps=409 q=-0.0 size=N/A time=00:08:29.96 bitrate=N/A speed=  17x    frame=12425 fps=408 q=-0.0 size=N/A time=00:08:38.22 bitrate=N/A speed=  17x    frame=12629 fps=408 q=-0.0 size=N/A time=00:08:46.73 bitrate=N/A speed=  17x    frame=12849 fps=408 q=-0.0 size=N/A time=00:08:55.91 bitrate=N/A speed=  17x    frame=13008 fps=407 q=-0.0 size=N/A time=00:09:02.54 bitrate=N/A speed=  17x    frame=13179 fps=405 q=-0.0 size=N/A time=00:09:09.67 bitrate=N/A speed=16.9x    frame=13348 fps=404 q=-0.0 size=N/A time=00:09:16.72 bitrate=N/A speed=16.9x    frame=13542 fps=404 q=-0.0 size=N/A time=00:09:24.81 bitrate=N/A speed=16.8x    frame=13749 fps=404 q=-0.0 size=N/A time=00:09:33.44 bitrate=N/A speed=16.8x    frame=13981 fps=404 q=-0.0 size=N/A time=00:09:43.12 bitrate=N/A speed=16.9x    frame=14141 fps=403 q=-0.0 size=N/A time=00:09:49.79 bitrate=N/A speed=16.8x    frame=14315 fps=402 q=-0.0 size=N/A time=00:09:57.05 bitrate=N/A speed=16.8x    frame=14518 fps=402 q=-0.0 size=N/A time=00:10:05.52 bitrate=N/A speed=16.8x    frame=14739 fps=402 q=-0.0 size=N/A time=00:10:14.73 bitrate=N/A speed=16.8x    frame=14948 fps=402 q=-0.0 size=N/A time=00:10:23.45 bitrate=N/A speed=16.8x    frame=15207 fps=404 q=-0.0 size=N/A time=00:10:34.25 bitrate=N/A speed=16.8x    frame=15461 fps=405 q=-0.0 size=N/A time=00:10:44.85 bitrate=N/A speed=16.9x    frame=15724 fps=406 q=-0.0 size=N/A time=00:10:55.82 bitrate=N/A speed=16.9x    frame=15975 fps=407 q=-0.0 size=N/A time=00:11:06.29 bitrate=N/A speed=  17x    frame=16227 fps=408 q=-0.0 size=N/A time=00:11:16.80 bitrate=N/A speed=  17x    frame=16471 fps=409 q=-0.0 size=N/A time=00:11:26.97 bitrate=N/A speed=17.1x    frame=16763 fps=411 q=-0.0 size=N/A time=00:11:39.15 bitrate=N/A speed=17.1x    frame=17035 fps=413 q=-0.0 size=N/A time=00:11:50.50 bitrate=N/A speed=17.2x    frame=17328 fps=414 q=-0.0 size=N/A time=00:12:02.76 bitrate=N/A speed=17.3x    frame=17608 fps=416 q=-0.0 size=N/A time=00:12:14.40 bitrate=N/A speed=17.4x    frame=17789 fps=415 q=-0.0 size=N/A time=00:12:21.94 bitrate=N/A speed=17.3x    frame=17973 fps=415 q=-0.0 size=N/A time=00:12:29.62 bitrate=N/A speed=17.3x    frame=18157 fps=414 q=-0.0 size=N/A time=00:12:37.29 bitrate=N/A speed=17.3x    frame=18343 fps=413 q=-0.0 size=N/A time=00:12:45.05 bitrate=N/A speed=17.2x    frame=18494 fps=412 q=-0.0 size=N/A time=00:12:51.35 bitrate=N/A speed=17.2x    frame=18736 fps=412 q=-0.0 size=N/A time=00:13:01.44 bitrate=N/A speed=17.2x    frame=19009 fps=414 q=-0.0 size=N/A time=00:13:12.83 bitrate=N/A speed=17.3x    frame=19179 fps=413 q=-0.0 size=N/A time=00:13:19.92 bitrate=N/A speed=17.2x    frame=19389 fps=413 q=-0.0 size=N/A time=00:13:28.68 bitrate=N/A speed=17.2x    frame=19638 fps=414 q=-0.0 size=N/A time=00:13:39.06 bitrate=N/A speed=17.2x    frame=19930 fps=415 q=-0.0 size=N/A time=00:13:51.24 bitrate=N/A speed=17.3x    frame=20214 fps=417 q=-0.0 size=N/A time=00:14:03.09 bitrate=N/A speed=17.4x    frame=20494 fps=418 q=-0.0 size=N/A time=00:14:14.77 bitrate=N/A speed=17.4x    frame=20777 fps=419 q=-0.0 size=N/A time=00:14:26.57 bitrate=N/A speed=17.5x    frame=21071 fps=421 q=-0.0 size=N/A time=00:14:38.83 bitrate=N/A speed=17.6x    frame=21348 fps=422 q=-0.0 size=N/A time=00:14:50.38 bitrate=N/A speed=17.6x    frame=21619 fps=423 q=-0.0 size=N/A time=00:15:01.69 bitrate=N/A speed=17.6x    frame=21882 fps=424 q=-0.0 size=N/A time=00:15:12.66 bitrate=N/A speed=17.7x    frame=22142 fps=425 q=-0.0 size=N/A time=00:15:23.50 bitrate=N/A speed=17.7x    frame=22422 fps=426 q=-0.0 size=N/A time=00:15:35.18 bitrate=N/A speed=17.8x    frame=22711 fps=427 q=-0.0 size=N/A time=00:15:47.23 bitrate=N/A speed=17.8x    frame=22999 fps=428 q=-0.0 size=N/A time=00:15:59.24 bitrate=N/A speed=17.9x    frame=23271 fps=429 q=-0.0 size=N/A time=00:16:10.59 bitrate=N/A speed=17.9x    frame=23542 fps=430 q=-0.0 size=N/A time=00:16:21.89 bitrate=N/A speed=17.9x    frame=23786 fps=431 q=-0.0 size=N/A time=00:16:32.07 bitrate=N/A speed=  18x    frame=24048 fps=431 q=-0.0 size=N/A time=00:16:43.00 bitrate=N/A speed=  18x    frame=24317 fps=432 q=-0.0 size=N/A time=00:16:54.22 bitrate=N/A speed=  18x    frame=24604 fps=433 q=-0.0 size=N/A time=00:17:06.19 bitrate=N/A speed=18.1x    frame=24885 fps=434 q=-0.0 size=N/A time=00:17:17.91 bitrate=N/A speed=18.1x    frame=25148 fps=435 q=-0.0 size=N/A time=00:17:28.88 bitrate=N/A speed=18.1x    frame=25385 fps=435 q=-0.0 size=N/A time=00:17:38.76 bitrate=N/A speed=18.2x    frame=25658 fps=436 q=-0.0 size=N/A time=00:17:50.15 bitrate=N/A speed=18.2x    frame=25922 fps=437 q=-0.0 size=N/A time=00:18:01.16 bitrate=N/A speed=18.2x    frame=26176 fps=437 q=-0.0 size=N/A time=00:18:11.75 bitrate=N/A speed=18.2x    frame=26461 fps=438 q=-0.0 size=N/A time=00:18:23.64 bitrate=N/A speed=18.3x    frame=26739 fps=439 q=-0.0 size=N/A time=00:18:35.23 bitrate=N/A speed=18.3x    frame=27035 fps=440 q=-0.0 size=N/A time=00:18:47.58 bitrate=N/A speed=18.4x    frame=27321 fps=441 q=-0.0 size=N/A time=00:18:59.51 bitrate=N/A speed=18.4x    frame=27588 fps=442 q=-0.0 size=N/A time=00:19:10.64 bitrate=N/A speed=18.4x    frame=27875 fps=443 q=-0.0 size=N/A time=00:19:22.61 bitrate=N/A speed=18.5x    frame=28161 fps=444 q=-0.0 size=N/A time=00:19:34.54 bitrate=N/A speed=18.5x    frame=28452 fps=445 q=-0.0 size=N/A time=00:19:46.68 bitrate=N/A speed=18.5x    frame=28739 fps=445 q=-0.0 size=N/A time=00:19:58.65 bitrate=N/A speed=18.6x    frame=29013 fps=446 q=-0.0 size=N/A time=00:20:10.08 bitrate=N/A speed=18.6x    frame=29302 fps=447 q=-0.0 size=N/A time=00:20:22.13 bitrate=N/A speed=18.6x    frame=29573 fps=448 q=-0.0 size=N/A time=00:20:33.44 bitrate=N/A speed=18.7x    frame=29841 fps=448 q=-0.0 size=N/A time=00:20:44.61 bitrate=N/A speed=18.7x    frame=30130 fps=449 q=-0.0 size=N/A time=00:20:56.67 bitrate=N/A speed=18.7x    frame=30418 fps=450 q=-0.0 size=N/A time=00:21:08.68 bitrate=N/A speed=18.8x    frame=30665 fps=450 q=-0.0 size=N/A time=00:21:18.98 bitrate=N/A speed=18.8x    frame=30943 fps=451 q=-0.0 size=N/A time=00:21:30.58 bitrate=N/A speed=18.8x    frame=31220 fps=451 q=-0.0 size=N/A time=00:21:42.17 bitrate=N/A speed=18.8x    frame=31486 fps=452 q=-0.0 size=N/A time=00:21:53.22 bitrate=N/A speed=18.8x    frame=31765 fps=452 q=-0.0 size=N/A time=00:22:04.86 bitrate=N/A speed=18.9x    frame=32032 fps=453 q=-0.0 size=N/A time=00:22:16.04 bitrate=N/A speed=18.9x    frame=32286 fps=453 q=-0.0 size=N/A time=00:22:26.59 bitrate=N/A speed=18.9x    frame=32528 fps=453 q=-0.0 size=N/A time=00:22:36.68 bitrate=N/A speed=18.9x    frame=32800 fps=454 q=-0.0 size=N/A time=00:22:48.03 bitrate=N/A speed=18.9x    frame=33061 fps=454 q=-0.0 size=N/A time=00:22:58.91 bitrate=N/A speed=18.9x    frame=33335 fps=455 q=-0.0 size=N/A time=00:23:10.34 bitrate=N/A speed=  19x    frame=33584 fps=455 q=-0.0 size=N/A time=00:23:20.73 bitrate=N/A speed=  19x    frame=33837 fps=455 q=-0.0 size=N/A time=00:23:31.28 bitrate=N/A speed=  19x    frame=34101 fps=455 q=-0.0 size=N/A time=00:23:42.29 bitrate=N/A speed=  19x    frame=34339 fps=456 q=-0.0 size=N/A time=00:23:52.22 bitrate=N/A speed=  19x    frame=34601 fps=456 q=-0.0 size=N/A time=00:24:03.15 bitrate=N/A speed=  19x    [Parsed_psnr_10 @ 000002a19c4b9600] PSNR y:48.181824 u:49.523836 v:49.506606 average:48.582458 min:33.574296 max:inf
[out#0/null @ 000002a1991306c0] video:14878KiB audio:270796KiB subtitle:0KiB other streams:0KiB global headers:0KiB muxing overhead: unknown
frame=34625 fps=456 q=-0.0 Lsize=N/A time=00:24:04.15 bitrate=N/A speed=  19x    
